<?xml version="1.0" encoding="utf-8"?>
<!-- Generator: Adobe Illustrator 25.2.0, SVG Export Plug-In . SVG Version: 6.00 Build 0)  -->
<svg version="1.1" id="Layer_1" xmlns="http://www.w3.org/2000/svg" xmlns:xlink="http://www.w3.org/1999/xlink" x="0px" y="0px"
	 viewBox="0 0 512 512" style="enable-background:new 0 0 512 512;" xml:space="preserve">
<style type="text/css">
	.st0{fill:#F5BB00;}
</style>
<path class="st0" d="M490.3,40.4c21.9,21.9,21.9,57.3,0,79.2l-30,30.1l-98-98l30.1-30.1c21.9-21.9,57.3-21.9,79.2,0L490.3,40.4z
	 M172.4,241.7L339.7,74.3l98,98L270.3,339.6c-6.1,6.2-13.6,10.8-21.9,13.6l-88.8,29.6c-9.5,2.8-18.1,0.6-24.6-6.7
	c-6.4-5.6-8.6-15.1-5.8-23.7l29.6-88.8C161.6,255.3,166.2,247.8,172.4,241.7L172.4,241.7z M192,63.1c17.7,0,32,15.2,32,32
	c0,18.6-14.3,32-32,32H96c-17.7,0-32,15.2-32,32V416c0,17.7,14.3,32,32,32h256c17.7,0,32-14.3,32-32v-96.9c0-16.8,14.3-32,32-32
	s32,15.2,32,32V416c0,53-43,96-96,96H96c-53,0-96-43-96-96V159.1c0-53,43-96,96-96H192z"/>
</svg>
